<svg xmlns="http://www.w3.org/2000/svg" xmlns:xlink="http://www.w3.org/1999/xlink" width="500" zoomAndPan="magnify" viewBox="0 0 375 374.999991" height="500" preserveAspectRatio="xMidYMid meet" version="1.0"><defs><g/><clipPath id="fc2816ede1"><path d="M 104.4375 112.5 L 133.6875 112.5 L 133.6875 187.5 L 104.4375 187.5 Z M 104.4375 112.5 " clip-rule="nonzero"/></clipPath></defs><rect x="-37.5" width="450" fill="#ffffff" y="-37.499999" height="449.999989" fill-opacity="1"/><rect x="-37.5" width="450" fill="#ffffff" y="-37.499999" height="449.999989" fill-opacity="1"/><rect x="-37.5" width="450" fill="#000000" y="-37.499999" height="449.999989" fill-opacity="1"/><g clip-path="url(#fc2816ede1)"><path fill="#f60c94" d="M 133.109375 155.960938 C 129.367188 156.632812 125.613281 157.226562 121.847656 157.746094 C 123.058594 154.320312 124.089844 150.835938 125.195312 147.375 C 125.53125 146.328125 125.875 145.285156 126.234375 144.246094 C 126.347656 143.917969 126.082031 143.609375 125.75 143.652344 C 124.703125 143.792969 123.65625 143.917969 122.609375 144.03125 C 122.496094 143.996094 122.378906 144.003906 122.277344 144.0625 C 119.929688 144.304688 117.570312 144.472656 115.210938 144.558594 C 115.800781 139.160156 116.363281 133.75 117.277344 128.398438 C 117.507812 127.070312 117.757812 125.742188 118.074219 124.433594 C 118.082031 124.394531 118.085938 124.351562 118.089844 124.3125 C 118.101562 124.1875 118.066406 124.0625 117.972656 123.964844 C 117.964844 123.957031 117.953125 123.949219 117.945312 123.941406 C 117.933594 123.933594 117.929688 123.921875 117.917969 123.917969 C 117.914062 123.914062 117.910156 123.914062 117.90625 123.910156 C 117.894531 123.902344 117.882812 123.894531 117.871094 123.890625 C 117.859375 123.882812 117.851562 123.878906 117.835938 123.871094 C 117.832031 123.867188 117.824219 123.863281 117.816406 123.863281 C 117.777344 123.847656 117.734375 123.839844 117.6875 123.839844 C 117.683594 123.835938 117.675781 123.835938 117.667969 123.835938 C 117.65625 123.835938 117.644531 123.835938 117.632812 123.839844 C 117.527344 123.84375 117.421875 123.882812 117.351562 123.957031 C 117.304688 124 117.269531 124.050781 117.253906 124.113281 C 115.460938 127.390625 113.945312 130.820312 112.425781 134.230469 C 110.691406 138.125 109.003906 142.042969 107.199219 145.90625 C 106.375 147.675781 105.53125 149.441406 104.589844 151.15625 C 104.449219 151.410156 104.535156 151.863281 104.90625 151.855469 C 108.761719 151.761719 112.601562 151.476562 116.449219 151.277344 C 115.773438 156.066406 114.898438 160.828125 113.816406 165.542969 C 113.746094 165.855469 113.941406 166.199219 114.304688 166.136719 C 117.371094 165.585938 120.441406 165.035156 123.507812 164.484375 C 123.566406 166.542969 123.613281 168.605469 123.660156 170.667969 C 123.625 170.800781 123.628906 170.941406 123.671875 171.066406 C 123.761719 174.617188 123.875 178.167969 124.121094 181.707031 C 124.238281 183.417969 124.390625 185.121094 124.566406 186.824219 C 124.609375 187.246094 125.296875 187.324219 125.40625 186.902344 C 126.445312 182.945312 127.457031 178.976562 128.480469 175.015625 C 129.511719 171.035156 130.5625 167.058594 131.675781 163.097656 C 132.292969 160.910156 132.929688 158.726562 133.597656 156.554688 C 133.695312 156.238281 133.453125 155.898438 133.109375 155.960938 Z M 124.609375 146.152344 C 124.640625 146.117188 124.675781 146.078125 124.710938 146.042969 C 124.605469 146.363281 124.5 146.6875 124.398438 147.007812 C 124.472656 146.726562 124.542969 146.441406 124.609375 146.152344 Z M 123.488281 144.824219 C 123.394531 144.859375 123.304688 144.898438 123.214844 144.933594 C 123.203125 144.910156 123.195312 144.882812 123.183594 144.859375 C 123.285156 144.847656 123.386719 144.835938 123.488281 144.824219 Z M 122.046875 147.566406 C 122.121094 147.53125 122.199219 147.5 122.277344 147.464844 C 122.195312 147.558594 122.113281 147.65625 122.03125 147.75 C 122.035156 147.691406 122.042969 147.628906 122.046875 147.566406 Z M 115.378906 130.535156 C 115.359375 130.597656 115.34375 130.660156 115.328125 130.722656 C 115.316406 130.726562 115.300781 130.726562 115.289062 130.730469 C 115.320312 130.664062 115.347656 130.597656 115.378906 130.535156 Z M 107.652344 150.878906 C 107.519531 150.886719 107.386719 150.890625 107.253906 150.894531 C 107.402344 150.859375 107.554688 150.828125 107.703125 150.792969 C 107.683594 150.820312 107.664062 150.847656 107.652344 150.878906 Z M 108.398438 148.59375 C 108.371094 148.59375 108.34375 148.59375 108.316406 148.59375 C 108.328125 148.476562 108.34375 148.363281 108.363281 148.25 C 108.367188 148.246094 108.367188 148.242188 108.371094 148.238281 C 108.394531 148.269531 108.425781 148.296875 108.460938 148.320312 C 108.4375 148.410156 108.417969 148.503906 108.398438 148.59375 Z M 109.984375 149.839844 C 109.894531 149.855469 109.800781 149.875 109.710938 149.894531 C 109.691406 149.832031 109.660156 149.777344 109.621094 149.726562 C 109.75 149.65625 109.878906 149.585938 110.003906 149.511719 C 110 149.621094 109.988281 149.730469 109.984375 149.839844 Z M 110.085938 148.429688 C 109.957031 148.503906 109.828125 148.582031 109.699219 148.65625 C 109.949219 147.777344 110.144531 146.878906 110.289062 145.976562 C 110.332031 145.988281 110.375 145.996094 110.417969 145.996094 C 110.273438 146.800781 110.164062 147.613281 110.085938 148.429688 Z M 111.0625 149.640625 C 111.054688 149.640625 111.046875 149.644531 111.042969 149.644531 C 111.050781 149.628906 111.058594 149.609375 111.066406 149.59375 C 111.0625 149.609375 111.0625 149.625 111.0625 149.640625 Z M 111.382812 145.714844 C 111.339844 145.933594 111.292969 146.148438 111.246094 146.363281 C 111.296875 146.066406 111.351562 145.777344 111.410156 145.484375 C 111.402344 145.5625 111.394531 145.636719 111.382812 145.714844 Z M 112.332031 149.246094 C 112.289062 149.269531 112.246094 149.289062 112.203125 149.308594 C 112.25 149.140625 112.292969 148.976562 112.332031 148.8125 C 112.332031 148.957031 112.332031 149.101562 112.332031 149.246094 Z M 113.289062 143.652344 C 113.265625 143.832031 113.242188 144.011719 113.214844 144.191406 C 113.210938 144.1875 113.207031 144.183594 113.203125 144.179688 C 113.203125 143.878906 113.203125 143.574219 113.203125 143.273438 C 113.269531 143.113281 113.339844 142.957031 113.402344 142.796875 C 113.359375 143.015625 113.320312 143.238281 113.277344 143.460938 C 113.265625 143.53125 113.273438 143.597656 113.289062 143.652344 Z M 114.109375 133.472656 C 114.105469 133.457031 114.101562 133.445312 114.09375 133.429688 C 114.109375 133.386719 114.128906 133.34375 114.148438 133.300781 C 114.136719 133.359375 114.125 133.417969 114.109375 133.472656 Z M 114.710938 132.25 C 114.667969 132.253906 114.628906 132.261719 114.589844 132.273438 C 114.671875 132.085938 114.757812 131.894531 114.839844 131.707031 C 114.796875 131.886719 114.753906 132.070312 114.710938 132.25 Z M 115.28125 148.214844 C 115.308594 148.160156 115.332031 148.101562 115.351562 148.046875 C 115.429688 148.074219 115.507812 148.105469 115.585938 148.132812 C 115.484375 148.160156 115.382812 148.1875 115.28125 148.214844 Z M 117.25 150.425781 C 117.246094 150.441406 117.242188 150.460938 117.238281 150.480469 C 117.214844 150.464844 117.195312 150.449219 117.171875 150.4375 C 117.195312 150.433594 117.222656 150.429688 117.25 150.425781 Z M 116.554688 164.832031 C 116.785156 164.742188 117.015625 164.65625 117.246094 164.570312 C 117.425781 164.601562 117.605469 164.617188 117.78125 164.609375 C 117.371094 164.683594 116.964844 164.757812 116.554688 164.832031 Z M 118.144531 154.367188 C 118.15625 154.175781 118.175781 153.984375 118.191406 153.796875 C 118.203125 153.800781 118.214844 153.804688 118.226562 153.804688 C 118.199219 153.992188 118.171875 154.179688 118.144531 154.367188 Z M 118.472656 163.164062 C 118.5 163.113281 118.53125 163.0625 118.558594 163.011719 C 118.558594 163.050781 118.5625 163.089844 118.566406 163.128906 C 118.535156 163.140625 118.503906 163.152344 118.472656 163.164062 Z M 119.460938 162.792969 C 119.460938 162.78125 119.460938 162.773438 119.460938 162.761719 C 119.480469 162.765625 119.5 162.769531 119.519531 162.769531 C 119.5 162.777344 119.480469 162.785156 119.460938 162.792969 Z M 120.144531 161.5 C 119.914062 161.578125 119.679688 161.652344 119.445312 161.730469 C 119.445312 161.652344 119.445312 161.578125 119.445312 161.5 C 119.542969 161.484375 119.640625 161.464844 119.738281 161.445312 C 119.875 161.503906 120.035156 161.496094 120.164062 161.417969 C 120.160156 161.445312 120.152344 161.472656 120.144531 161.5 Z M 119.789062 153.714844 C 119.871094 153.699219 119.945312 153.660156 120.007812 153.597656 C 119.984375 153.785156 119.960938 153.976562 119.9375 154.164062 C 119.90625 154.21875 119.878906 154.273438 119.847656 154.328125 C 119.820312 154.125 119.800781 153.917969 119.789062 153.714844 Z M 119.867188 146.390625 C 119.902344 146.34375 119.9375 146.300781 119.972656 146.257812 C 120.0625 146.226562 120.152344 146.199219 120.242188 146.167969 C 120.265625 146.164062 120.289062 146.15625 120.3125 146.148438 C 120.164062 146.230469 120.019531 146.3125 119.867188 146.390625 Z M 120.539062 148.308594 C 120.492188 148.292969 120.441406 148.285156 120.390625 148.285156 C 120.460938 148.257812 120.527344 148.226562 120.59375 148.199219 C 120.570312 148.230469 120.550781 148.269531 120.539062 148.308594 Z M 121.097656 148.027344 C 121.074219 148.019531 121.046875 148.015625 121.019531 148.011719 C 121.046875 148 121.074219 147.988281 121.105469 147.976562 C 121.101562 147.992188 121.101562 148.011719 121.097656 148.027344 Z M 121.59375 145.027344 C 121.570312 145.027344 121.546875 145.023438 121.523438 145.027344 C 121.546875 145.023438 121.574219 145.023438 121.597656 145.019531 C 121.597656 145.023438 121.59375 145.023438 121.59375 145.027344 Z M 124.023438 163.527344 C 124.003906 163.523438 123.988281 163.515625 123.96875 163.515625 C 123.988281 163.507812 124.007812 163.5 124.027344 163.492188 C 124.027344 163.503906 124.023438 163.515625 124.023438 163.527344 Z M 125.558594 163.320312 C 125.542969 163.359375 125.53125 163.398438 125.515625 163.441406 C 125.480469 163.253906 125.441406 163.070312 125.394531 162.890625 C 125.46875 162.851562 125.542969 162.816406 125.613281 162.777344 C 125.597656 162.960938 125.578125 163.140625 125.558594 163.320312 Z M 125.859375 173.953125 C 125.855469 173.882812 125.847656 173.8125 125.84375 173.742188 C 125.859375 173.746094 125.875 173.75 125.890625 173.75 C 125.878906 173.816406 125.871094 173.882812 125.859375 173.953125 Z M 126.207031 166.023438 C 126.179688 166.167969 126.148438 166.3125 126.121094 166.457031 C 126.15625 166.113281 126.191406 165.773438 126.226562 165.429688 C 126.21875 165.628906 126.214844 165.824219 126.207031 166.023438 Z M 127.199219 165.808594 C 127.179688 165.816406 127.160156 165.824219 127.144531 165.832031 C 127.183594 165.660156 127.21875 165.484375 127.261719 165.3125 C 127.238281 165.476562 127.21875 165.640625 127.199219 165.808594 Z M 128.164062 160.394531 C 128.128906 160.367188 128.089844 160.339844 128.054688 160.3125 C 128.070312 160.296875 128.082031 160.28125 128.097656 160.265625 C 128.125 160.304688 128.152344 160.34375 128.179688 160.382812 C 128.175781 160.386719 128.171875 160.390625 128.164062 160.394531 Z M 128.511719 157.652344 C 128.5 157.652344 128.488281 157.648438 128.476562 157.644531 C 128.535156 157.636719 128.597656 157.625 128.660156 157.617188 C 128.609375 157.628906 128.5625 157.640625 128.511719 157.652344 Z M 130.078125 158.519531 C 130.070312 158.488281 130.0625 158.460938 130.050781 158.433594 C 130.03125 158.390625 130.007812 158.359375 129.980469 158.328125 C 129.980469 158.316406 129.980469 158.308594 129.980469 158.296875 C 130.035156 158.292969 130.09375 158.292969 130.152344 158.292969 C 130.128906 158.367188 130.105469 158.441406 130.078125 158.519531 Z M 131.207031 158.664062 C 131.230469 158.453125 131.25 158.246094 131.273438 158.035156 C 131.285156 158.042969 131.296875 158.042969 131.308594 158.050781 C 131.320312 158.054688 131.335938 158.058594 131.347656 158.0625 C 131.300781 158.261719 131.253906 158.464844 131.207031 158.664062 Z M 131.550781 157.195312 C 131.515625 157.179688 131.476562 157.164062 131.441406 157.148438 C 131.484375 157.144531 131.523438 157.136719 131.566406 157.128906 C 131.5625 157.148438 131.554688 157.171875 131.550781 157.195312 Z M 132.285156 157.875 C 132.324219 157.707031 132.363281 157.539062 132.402344 157.375 C 132.433594 157.238281 132.421875 157.101562 132.363281 156.988281 C 132.429688 156.976562 132.496094 156.964844 132.5625 156.953125 C 132.46875 157.261719 132.378906 157.566406 132.285156 157.875 Z M 127.289062 120.246094 C 126.085938 122.304688 124.972656 124.414062 123.945312 126.566406 C 123.691406 127.097656 124.476562 127.566406 124.730469 127.03125 C 125.757812 124.878906 126.875 122.769531 128.074219 120.710938 C 128.375 120.199219 127.585938 119.734375 127.289062 120.246094 Z M 119.039062 113.027344 C 118.785156 114.914062 118.457031 116.792969 118.054688 118.65625 C 117.929688 119.230469 118.804688 119.480469 118.929688 118.898438 C 119.335938 117.039062 119.664062 115.160156 119.917969 113.269531 C 119.949219 113.023438 119.859375 112.777344 119.597656 112.703125 C 119.386719 112.644531 119.074219 112.777344 119.039062 113.027344 Z M 109.667969 124.421875 C 108.246094 122.496094 106.824219 120.574219 105.402344 118.648438 C 105.253906 118.449219 105.007812 118.347656 104.78125 118.484375 C 104.585938 118.597656 104.46875 118.914062 104.617188 119.113281 C 106.039062 121.039062 107.460938 122.960938 108.882812 124.886719 C 109.03125 125.085938 109.277344 125.1875 109.503906 125.050781 C 109.699219 124.9375 109.816406 124.621094 109.667969 124.421875 Z M 109.667969 124.421875 " fill-opacity="1" fill-rule="nonzero"/></g><g fill="#5ce1e6" fill-opacity="1"><g transform="translate(134.038956, 174.450121)"><g><path d="M 0 0 L 16.253906 -48.757812 L 31.246094 -48.757812 L 47.558594 0 L 33.195312 0 L 31.371094 -6.363281 L 15.433594 -6.363281 L 13.605469 0 Z M 23.433594 -34.015625 L 18.519531 -16.566406 L 28.597656 -16.566406 Z M 17.449219 4.03125 C 17.953125 2.078125 18.773438 -0.316406 19.339844 -2.332031 L 31.558594 -2.332031 L 32.503906 0.882812 L 34.707031 0.882812 L 35.652344 4.03125 L 51.90625 4.03125 L 35.023438 -46.488281 L 32.882812 -46.488281 L 31.875 -49.636719 L 15.621094 -49.636719 L -1.195312 0.882812 L 2.960938 0.882812 L 1.953125 4.03125 Z M 27.464844 -17.449219 L 23.683594 -17.449219 L 25.511719 -23.9375 Z M 27.464844 -17.449219 "/></g></g></g><g fill="#cb6ce6" fill-opacity="1"><g transform="translate(185.367078, 174.450121)"><g><path d="M 2.394531 -48.757812 L 16.125 -48.757812 L 16.125 -10.773438 L 37.101562 -10.773438 L 37.101562 0 L 2.394531 0 Z M 1.511719 0.882812 L 4.660156 0.882812 L 4.660156 4.03125 L 41.132812 4.03125 L 41.132812 -8.503906 L 37.984375 -8.503906 L 37.984375 -11.652344 L 20.15625 -11.652344 L 20.15625 -46.488281 L 17.007812 -46.488281 L 17.007812 -49.636719 L 1.511719 -49.636719 Z M 1.511719 0.882812 "/></g></g></g><g fill="#ff66c4" fill-opacity="1"><g transform="translate(227.120981, 174.450121)"><g><path d="M 16.125 -48.757812 L 25.890625 -30.675781 L 36.09375 -48.757812 L 52.09375 -48.757812 L 32.691406 -18.898438 L 32.691406 0 L 18.835938 0 L 18.835938 -18.773438 L 0 -48.757812 Z M -1.574219 -49.636719 L 17.953125 -18.519531 L 17.953125 0.882812 L 21.101562 0.882812 L 21.101562 4.03125 L 36.726562 4.03125 L 36.726562 -15.433594 L 56.882812 -46.488281 L 51.652344 -46.488281 L 53.734375 -49.636719 L 35.589844 -49.636719 L 26.644531 -33.765625 L 19.78125 -46.488281 L 18.332031 -46.488281 L 16.628906 -49.636719 Z M -1.574219 -49.636719 "/></g></g></g><g fill="#ffffff" fill-opacity="1"><g transform="translate(119.231773, 197.700237)"><g><path d="M 2.96875 -9.90625 L 2.96875 -1.984375 L 6.390625 -1.984375 L 6.390625 0 L 0.71875 0 L 0.71875 -9.90625 Z M 2.96875 -9.90625 "/></g></g></g><g fill="#ffffff" fill-opacity="1"><g transform="translate(126.011791, 197.700237)"><g><path d="M 0.28125 -4.953125 C 0.28125 -6.390625 0.765625 -7.601562 1.734375 -8.59375 C 2.710938 -9.582031 3.890625 -10.078125 5.265625 -10.078125 C 6.648438 -10.078125 7.828125 -9.582031 8.796875 -8.59375 C 9.765625 -7.601562 10.25 -6.390625 10.25 -4.953125 C 10.25 -3.503906 9.769531 -2.285156 8.8125 -1.296875 C 7.863281 -0.304688 6.679688 0.1875 5.265625 0.1875 C 3.816406 0.1875 2.625 -0.300781 1.6875 -1.28125 C 0.75 -2.269531 0.28125 -3.492188 0.28125 -4.953125 Z M 2.71875 -4.953125 C 2.71875 -4.429688 2.796875 -3.957031 2.953125 -3.53125 C 3.109375 -3.101562 3.382812 -2.738281 3.78125 -2.4375 C 4.1875 -2.144531 4.679688 -2 5.265625 -2 C 6.109375 -2 6.742188 -2.285156 7.171875 -2.859375 C 7.597656 -3.441406 7.8125 -4.140625 7.8125 -4.953125 C 7.8125 -5.765625 7.59375 -6.457031 7.15625 -7.03125 C 6.71875 -7.613281 6.085938 -7.90625 5.265625 -7.90625 C 4.453125 -7.90625 3.820312 -7.613281 3.375 -7.03125 C 2.9375 -6.457031 2.71875 -5.765625 2.71875 -4.953125 Z M 2.71875 -4.953125 "/></g></g></g><g fill="#ffffff" fill-opacity="1"><g transform="translate(136.535811, 197.700237)"><g><path d="M 5.984375 -2.046875 C 6.328125 -2.046875 6.660156 -2.097656 6.984375 -2.203125 C 7.304688 -2.304688 7.546875 -2.40625 7.703125 -2.5 L 7.9375 -2.65625 L 8.890625 -0.734375 C 8.859375 -0.710938 8.8125 -0.679688 8.75 -0.640625 C 8.695312 -0.597656 8.566406 -0.519531 8.359375 -0.40625 C 8.160156 -0.300781 7.945312 -0.207031 7.71875 -0.125 C 7.488281 -0.0507812 7.179688 0.015625 6.796875 0.078125 C 6.421875 0.148438 6.035156 0.1875 5.640625 0.1875 C 4.722656 0.1875 3.847656 -0.0351562 3.015625 -0.484375 C 2.191406 -0.941406 1.53125 -1.566406 1.03125 -2.359375 C 0.53125 -3.148438 0.28125 -4.007812 0.28125 -4.9375 C 0.28125 -5.625 0.425781 -6.285156 0.71875 -6.921875 C 1.007812 -7.566406 1.398438 -8.117188 1.890625 -8.578125 C 2.390625 -9.035156 2.96875 -9.398438 3.625 -9.671875 C 4.28125 -9.941406 4.953125 -10.078125 5.640625 -10.078125 C 6.273438 -10.078125 6.863281 -10 7.40625 -9.84375 C 7.945312 -9.695312 8.332031 -9.546875 8.5625 -9.390625 L 8.890625 -9.171875 L 7.9375 -7.25 C 7.875 -7.289062 7.785156 -7.347656 7.671875 -7.421875 C 7.566406 -7.492188 7.34375 -7.582031 7 -7.6875 C 6.664062 -7.800781 6.328125 -7.859375 5.984375 -7.859375 C 5.441406 -7.859375 4.953125 -7.769531 4.515625 -7.59375 C 4.085938 -7.414062 3.75 -7.179688 3.5 -6.890625 C 3.25 -6.609375 3.054688 -6.300781 2.921875 -5.96875 C 2.785156 -5.632812 2.71875 -5.296875 2.71875 -4.953125 C 2.71875 -4.203125 3 -3.53125 3.5625 -2.9375 C 4.132812 -2.34375 4.941406 -2.046875 5.984375 -2.046875 Z M 5.984375 -2.046875 "/></g></g></g><g fill="#ffffff" fill-opacity="1"><g transform="translate(145.571825, 197.700237)"><g><path d="M 5.75 -9.90625 L 9.75 0 L 7.3125 0 L 6.59375 -1.984375 L 2.8125 -1.984375 L 2.09375 0 L -0.34375 0 L 3.65625 -9.90625 Z M 5.8125 -3.953125 L 4.71875 -6.84375 L 4.6875 -6.84375 L 3.59375 -3.953125 Z M 5.8125 -3.953125 "/></g></g></g><g fill="#ffffff" fill-opacity="1"><g transform="translate(154.979841, 197.700237)"><g><path d="M 2.96875 -9.90625 L 2.96875 -1.984375 L 6.390625 -1.984375 L 6.390625 0 L 0.71875 0 L 0.71875 -9.90625 Z M 2.96875 -9.90625 "/></g></g></g><g fill="#ffffff" fill-opacity="1"><g transform="translate(161.759858, 197.700237)"><g/></g></g><g fill="#ffffff" fill-opacity="1"><g transform="translate(165.035867, 197.700237)"><g><path d="M 8.90625 0 L 8.4375 -5.875 L 8.375 -5.875 L 6.34375 -0.0625 L 5 -0.0625 L 2.96875 -5.875 L 2.921875 -5.875 L 2.453125 0 L 0.1875 0 L 1.078125 -9.90625 L 3.484375 -9.90625 L 5.671875 -4.1875 L 7.875 -9.90625 L 10.265625 -9.90625 L 11.15625 0 Z M 8.90625 0 "/></g></g></g><g fill="#ffffff" fill-opacity="1"><g transform="translate(176.38789, 197.700237)"><g><path d="M 5.75 -9.90625 L 9.75 0 L 7.3125 0 L 6.59375 -1.984375 L 2.8125 -1.984375 L 2.09375 0 L -0.34375 0 L 3.65625 -9.90625 Z M 5.8125 -3.953125 L 4.71875 -6.84375 L 4.6875 -6.84375 L 3.59375 -3.953125 Z M 5.8125 -3.953125 "/></g></g></g><g fill="#ffffff" fill-opacity="1"><g transform="translate(185.795906, 197.700237)"><g><path d="M 0.71875 -9.90625 L 4.265625 -9.90625 C 5.210938 -9.90625 5.984375 -9.648438 6.578125 -9.140625 C 7.179688 -8.628906 7.484375 -7.898438 7.484375 -6.953125 C 7.484375 -6.234375 7.300781 -5.625 6.9375 -5.125 C 6.570312 -4.632812 6.078125 -4.289062 5.453125 -4.09375 L 8.875 0 L 6 0 L 2.96875 -3.90625 L 2.96875 0 L 0.71875 0 Z M 2.96875 -5.515625 L 3.234375 -5.515625 C 3.441406 -5.515625 3.617188 -5.515625 3.765625 -5.515625 C 3.910156 -5.523438 4.070312 -5.550781 4.25 -5.59375 C 4.4375 -5.644531 4.585938 -5.710938 4.703125 -5.796875 C 4.816406 -5.890625 4.910156 -6.019531 4.984375 -6.1875 C 5.066406 -6.351562 5.109375 -6.554688 5.109375 -6.796875 C 5.109375 -7.035156 5.066406 -7.238281 4.984375 -7.40625 C 4.910156 -7.582031 4.816406 -7.710938 4.703125 -7.796875 C 4.585938 -7.890625 4.4375 -7.957031 4.25 -8 C 4.070312 -8.050781 3.910156 -8.078125 3.765625 -8.078125 C 3.617188 -8.085938 3.441406 -8.09375 3.234375 -8.09375 L 2.96875 -8.09375 Z M 2.96875 -5.515625 "/></g></g></g><g fill="#ffffff" fill-opacity="1"><g transform="translate(194.387923, 197.700237)"><g><path d="M 9.734375 0 L 6.625 0 L 2.96875 -4.203125 L 2.96875 0 L 0.71875 0 L 0.71875 -9.90625 L 2.96875 -9.90625 L 2.96875 -5.859375 L 6.375 -9.90625 L 9.109375 -9.90625 L 5.125 -5.203125 Z M 9.734375 0 "/></g></g></g><g fill="#ffffff" fill-opacity="1"><g transform="translate(203.831942, 197.700237)"><g><path d="M 6.390625 -9.90625 L 6.390625 -7.921875 L 2.96875 -7.921875 L 2.96875 -5.953125 L 6.234375 -5.953125 L 6.234375 -3.96875 L 2.96875 -3.96875 L 2.96875 -1.984375 L 6.390625 -1.984375 L 6.390625 0 L 0.71875 0 L 0.71875 -9.90625 Z M 6.390625 -9.90625 "/></g></g></g><g fill="#ffffff" fill-opacity="1"><g transform="translate(210.791952, 197.700237)"><g><path d="M 0.09375 -7.921875 L 0.09375 -9.90625 L 7.0625 -9.90625 L 7.0625 -7.921875 L 4.703125 -7.921875 L 4.703125 0 L 2.453125 0 L 2.453125 -7.921875 Z M 0.09375 -7.921875 "/></g></g></g><g fill="#ffffff" fill-opacity="1"><g transform="translate(217.943971, 197.700237)"><g/></g></g><g fill="#ffffff" fill-opacity="1"><g transform="translate(221.219979, 197.700237)"><g><path d="M 4.375 -10.078125 C 4.90625 -10.078125 5.425781 -10 5.9375 -9.84375 C 6.445312 -9.6875 6.828125 -9.535156 7.078125 -9.390625 L 7.4375 -9.140625 L 6.53125 -7.34375 C 6.457031 -7.394531 6.351562 -7.457031 6.21875 -7.53125 C 6.09375 -7.601562 5.851562 -7.703125 5.5 -7.828125 C 5.15625 -7.960938 4.832031 -8.03125 4.53125 -8.03125 C 4.144531 -8.03125 3.847656 -7.945312 3.640625 -7.78125 C 3.441406 -7.625 3.34375 -7.410156 3.34375 -7.140625 C 3.34375 -7.003906 3.390625 -6.878906 3.484375 -6.765625 C 3.585938 -6.648438 3.753906 -6.523438 3.984375 -6.390625 C 4.210938 -6.253906 4.414062 -6.144531 4.59375 -6.0625 C 4.769531 -5.988281 5.039062 -5.875 5.40625 -5.71875 C 6.050781 -5.4375 6.597656 -5.0625 7.046875 -4.59375 C 7.503906 -4.132812 7.734375 -3.609375 7.734375 -3.015625 C 7.734375 -2.441406 7.628906 -1.941406 7.421875 -1.515625 C 7.210938 -1.097656 6.929688 -0.769531 6.578125 -0.53125 C 6.222656 -0.289062 5.828125 -0.113281 5.390625 0 C 4.960938 0.125 4.5 0.1875 4 0.1875 C 3.5625 0.1875 3.132812 0.140625 2.71875 0.046875 C 2.300781 -0.0351562 1.953125 -0.144531 1.671875 -0.28125 C 1.398438 -0.414062 1.148438 -0.546875 0.921875 -0.671875 C 0.703125 -0.796875 0.539062 -0.90625 0.4375 -1 L 0.28125 -1.125 L 1.40625 -3.03125 C 1.5 -2.945312 1.628906 -2.84375 1.796875 -2.71875 C 1.960938 -2.59375 2.257812 -2.425781 2.6875 -2.21875 C 3.125 -2.007812 3.503906 -1.90625 3.828125 -1.90625 C 4.773438 -1.90625 5.25 -2.226562 5.25 -2.875 C 5.25 -3.007812 5.210938 -3.132812 5.140625 -3.25 C 5.078125 -3.375 4.957031 -3.492188 4.78125 -3.609375 C 4.613281 -3.722656 4.460938 -3.8125 4.328125 -3.875 C 4.203125 -3.945312 3.988281 -4.050781 3.6875 -4.1875 C 3.382812 -4.332031 3.164062 -4.441406 3.03125 -4.515625 C 2.425781 -4.804688 1.957031 -5.171875 1.625 -5.609375 C 1.300781 -6.054688 1.140625 -6.539062 1.140625 -7.0625 C 1.140625 -7.945312 1.46875 -8.671875 2.125 -9.234375 C 2.78125 -9.796875 3.53125 -10.078125 4.375 -10.078125 Z M 4.375 -10.078125 "/></g></g></g><g fill="#ffffff" fill-opacity="1"><g transform="translate(229.284001, 197.700237)"><g><path d="M 2.96875 -3.96875 L 2.96875 0 L 0.71875 0 L 0.71875 -9.90625 L 2.96875 -9.90625 L 2.96875 -5.953125 L 6.171875 -5.953125 L 6.171875 -9.90625 L 8.421875 -9.90625 L 8.421875 0 L 6.171875 0 L 6.171875 -3.96875 Z M 2.96875 -3.96875 "/></g></g></g><g fill="#ffffff" fill-opacity="1"><g transform="translate(238.428024, 197.700237)"><g><path d="M 0.28125 -4.953125 C 0.28125 -6.390625 0.765625 -7.601562 1.734375 -8.59375 C 2.710938 -9.582031 3.890625 -10.078125 5.265625 -10.078125 C 6.648438 -10.078125 7.828125 -9.582031 8.796875 -8.59375 C 9.765625 -7.601562 10.25 -6.390625 10.25 -4.953125 C 10.25 -3.503906 9.769531 -2.285156 8.8125 -1.296875 C 7.863281 -0.304688 6.679688 0.1875 5.265625 0.1875 C 3.816406 0.1875 2.625 -0.300781 1.6875 -1.28125 C 0.75 -2.269531 0.28125 -3.492188 0.28125 -4.953125 Z M 2.71875 -4.953125 C 2.71875 -4.429688 2.796875 -3.957031 2.953125 -3.53125 C 3.109375 -3.101562 3.382812 -2.738281 3.78125 -2.4375 C 4.1875 -2.144531 4.679688 -2 5.265625 -2 C 6.109375 -2 6.742188 -2.285156 7.171875 -2.859375 C 7.597656 -3.441406 7.8125 -4.140625 7.8125 -4.953125 C 7.8125 -5.765625 7.59375 -6.457031 7.15625 -7.03125 C 6.71875 -7.613281 6.085938 -7.90625 5.265625 -7.90625 C 4.453125 -7.90625 3.820312 -7.613281 3.375 -7.03125 C 2.9375 -6.457031 2.71875 -5.765625 2.71875 -4.953125 Z M 2.71875 -4.953125 "/></g></g></g><g fill="#ffffff" fill-opacity="1"><g transform="translate(248.952045, 197.700237)"><g><path d="M 5.984375 -2.046875 C 6.328125 -2.046875 6.660156 -2.097656 6.984375 -2.203125 C 7.304688 -2.304688 7.546875 -2.40625 7.703125 -2.5 L 7.9375 -2.65625 L 8.890625 -0.734375 C 8.859375 -0.710938 8.8125 -0.679688 8.75 -0.640625 C 8.695312 -0.597656 8.566406 -0.519531 8.359375 -0.40625 C 8.160156 -0.300781 7.945312 -0.207031 7.71875 -0.125 C 7.488281 -0.0507812 7.179688 0.015625 6.796875 0.078125 C 6.421875 0.148438 6.035156 0.1875 5.640625 0.1875 C 4.722656 0.1875 3.847656 -0.0351562 3.015625 -0.484375 C 2.191406 -0.941406 1.53125 -1.566406 1.03125 -2.359375 C 0.53125 -3.148438 0.28125 -4.007812 0.28125 -4.9375 C 0.28125 -5.625 0.425781 -6.285156 0.71875 -6.921875 C 1.007812 -7.566406 1.398438 -8.117188 1.890625 -8.578125 C 2.390625 -9.035156 2.96875 -9.398438 3.625 -9.671875 C 4.28125 -9.941406 4.953125 -10.078125 5.640625 -10.078125 C 6.273438 -10.078125 6.863281 -10 7.40625 -9.84375 C 7.945312 -9.695312 8.332031 -9.546875 8.5625 -9.390625 L 8.890625 -9.171875 L 7.9375 -7.25 C 7.875 -7.289062 7.785156 -7.347656 7.671875 -7.421875 C 7.566406 -7.492188 7.34375 -7.582031 7 -7.6875 C 6.664062 -7.800781 6.328125 -7.859375 5.984375 -7.859375 C 5.441406 -7.859375 4.953125 -7.769531 4.515625 -7.59375 C 4.085938 -7.414062 3.75 -7.179688 3.5 -6.890625 C 3.25 -6.609375 3.054688 -6.300781 2.921875 -5.96875 C 2.785156 -5.632812 2.71875 -5.296875 2.71875 -4.953125 C 2.71875 -4.203125 3 -3.53125 3.5625 -2.9375 C 4.132812 -2.34375 4.941406 -2.046875 5.984375 -2.046875 Z M 5.984375 -2.046875 "/></g></g></g><g fill="#ffffff" fill-opacity="1"><g transform="translate(257.988059, 197.700237)"><g><path d="M 9.734375 0 L 6.625 0 L 2.96875 -4.203125 L 2.96875 0 L 0.71875 0 L 0.71875 -9.90625 L 2.96875 -9.90625 L 2.96875 -5.859375 L 6.375 -9.90625 L 9.109375 -9.90625 L 5.125 -5.203125 Z M 9.734375 0 "/></g></g></g></svg>